<svg width="512" height="512" viewBox="0 0 512 512" fill="none" xmlns="http://www.w3.org/2000/svg">
  <rect width="512" height="512" rx="80" fill="#0f172a"/>
  <rect x="64" y="64" width="384" height="384" rx="32" fill="#33a381"/>
  <g transform="translate(128, 128)">
    <!-- Scale Icon -->
    <path d="M128 32C128 49.6 142.4 64 160 64C177.6 64 192 49.6 192 32C192 14.4 177.6 0 160 0C142.4 0 128 14.4 128 32Z" fill="white"/>
    <path d="M32 128C14.4 128 0 142.4 0 160C0 177.6 14.4 192 32 192C49.6 192 64 177.6 64 160C64 142.4 49.6 128 32 128Z" fill="white"/>
    <path d="M288 128C270.4 128 256 142.4 256 160C256 177.6 270.4 192 288 192C305.6 192 320 177.6 320 160C320 142.4 305.6 128 288 128Z" fill="white"/>
    <path d="M160 64L32 192H288L160 64Z" fill="white" opacity="0.8"/>
    <rect x="148" y="64" width="24" height="128" fill="white"/>
  </g>
</svg>
